REM DIRINDEX 1\2\4,1\2\5,1\2\6,1\2\7,1\3\8,1\3\9
REM DIRNAME folder01,folder02,folder03,folder04,folder05,folder06,folder07,folder08,folder09
TITLE ""
FILE "Disc2Track06.mp3" MP3
  TRACK 01 AUDIO
    TITLE "0:"
    INDEX 01 00:00:00
  TRACK 02 AUDIO
    TITLE "4:cjc037_1083"
    INDEX 01 00:00:05
  TRACK 03 AUDIO
    TITLE "0:"
    INDEX 01 00:01:62
  TRACK 04 AUDIO
    TITLE "4:cjc037_1084"
    INDEX 01 00:02:61
  TRACK 05 AUDIO
    TITLE "0:"
    INDEX 01 00:04:40
  TRACK 06 AUDIO
    TITLE "5:cjc037_1085"
    INDEX 01 00:05:16
  TRACK 07 AUDIO
    TITLE "0:"
    INDEX 01 00:09:73
  TRACK 08 AUDIO
    TITLE "6:cjc037_1086"
    INDEX 01 00:13:35
  TRACK 09 AUDIO
    TITLE "0:"
    INDEX 01 00:17:59
  TRACK 10 AUDIO
    TITLE "7:cjc037_1087"
    INDEX 01 00:21:19
  TRACK 11 AUDIO
    TITLE "0:"
    INDEX 01 00:24:43
  TRACK 12 AUDIO
    TITLE "4:cjc037_1088"
    INDEX 01 00:27:04
  TRACK 13 AUDIO
    TITLE "0:"
    INDEX 01 00:28:70
  TRACK 14 AUDIO
    TITLE "5:cjc037_1089"
    INDEX 01 00:29:48
  TRACK 15 AUDIO
    TITLE "0:"
    INDEX 01 00:33:13
  TRACK 16 AUDIO
    TITLE "6:cjc037_1090"
    INDEX 01 00:36:48
  TRACK 17 AUDIO
    TITLE "0:"
    INDEX 01 00:40:01
  TRACK 18 AUDIO
    TITLE "7:cjc037_1091"
    INDEX 01 00:43:37
  TRACK 19 AUDIO
    TITLE "0:"
    INDEX 01 00:46:06
  TRACK 20 AUDIO
    TITLE "4:cjc037_1092"
    INDEX 01 00:48:38
  TRACK 21 AUDIO
    TITLE "0:"
    INDEX 01 00:50:29
  TRACK 22 AUDIO
    TITLE "5:cjc037_1093"
    INDEX 01 00:51:03
  TRACK 23 AUDIO
    TITLE "0:"
    INDEX 01 00:54:23
  TRACK 24 AUDIO
    TITLE "6:cjc037_1094"
    INDEX 01 00:57:58
  TRACK 25 AUDIO
    TITLE "0:"
    INDEX 01 01:00:68
  TRACK 26 AUDIO
    TITLE "7:cjc037_1095"
    INDEX 01 01:04:27
  TRACK 27 AUDIO
    TITLE "0:"
    INDEX 01 01:06:65
  TRACK 28 AUDIO
    TITLE "4:cjc037_1096"
    INDEX 01 01:09:24
  TRACK 29 AUDIO
    TITLE "0:"
    INDEX 01 01:11:17
  TRACK 30 AUDIO
    TITLE "5:cjc037_1097"
    INDEX 01 01:11:68
  TRACK 31 AUDIO
    TITLE "0:"
    INDEX 01 01:14:65
  TRACK 32 AUDIO
    TITLE "6:cjc037_1098"
    INDEX 01 01:18:23
  TRACK 33 AUDIO
    TITLE "0:"
    INDEX 01 01:20:26
  TRACK 34 AUDIO
    TITLE "7:cjc037_1099"
    INDEX 01 01:23:60
  TRACK 35 AUDIO
    TITLE "0:"
    INDEX 01 01:25:35
  TRACK 36 AUDIO
    TITLE "4:cjc037_1100"
    INDEX 01 01:27:67
  TRACK 37 AUDIO
    TITLE "0:"
    INDEX 01 01:29:62
  TRACK 38 AUDIO
    TITLE "5:cjc037_1101"
    INDEX 01 01:30:36
  TRACK 39 AUDIO
    TITLE "0:"
    INDEX 01 01:34:50
  TRACK 40 AUDIO
    TITLE "6:cjc037_1102"
    INDEX 01 01:38:10
  TRACK 41 AUDIO
    TITLE "0:"
    INDEX 01 01:42:14
  TRACK 42 AUDIO
    TITLE "7:cjc037_1103"
    INDEX 01 01:45:49
  TRACK 43 AUDIO
    TITLE "0:"
    INDEX 01 01:48:61
  TRACK 44 AUDIO
    TITLE "4:cjc037_1104"
    INDEX 01 01:51:23
  TRACK 45 AUDIO
    TITLE "0:"
    INDEX 01 01:52:71
  TRACK 46 AUDIO
    TITLE "5:cjc037_1105"
    INDEX 01 01:53:47
  TRACK 47 AUDIO
    TITLE "0:"
    INDEX 01 01:56:71
  TRACK 48 AUDIO
    TITLE "6:cjc037_1106"
    INDEX 01 02:00:29
  TRACK 49 AUDIO
    TITLE "0:"
    INDEX 01 02:02:52
  TRACK 50 AUDIO
    TITLE "7:cjc037_1107"
    INDEX 01 02:06:12
  TRACK 51 AUDIO
    TITLE "0:"
    INDEX 01 02:08:01
  TRACK 52 AUDIO
    TITLE "4:cjc037_1108"
    INDEX 01 02:10:34
  TRACK 53 AUDIO
    TITLE "0:"
    INDEX 01 02:12:25
  TRACK 54 AUDIO
    TITLE "5:cjc037_1109"
    INDEX 01 02:12:74
  TRACK 55 AUDIO
    TITLE "0:"
    INDEX 01 02:17:14
  TRACK 56 AUDIO
    TITLE "6:cjc037_1110"
    INDEX 01 02:20:48
  TRACK 57 AUDIO
    TITLE "0:"
    INDEX 01 02:24:32
  TRACK 58 AUDIO
    TITLE "7:cjc037_1111"
    INDEX 01 02:27:67
  TRACK 59 AUDIO
    TITLE "0:"
    INDEX 01 02:30:68
  TRACK 60 AUDIO
    TITLE "4:cjc037_1112"
    INDEX 01 02:33:25
  TRACK 61 AUDIO
    TITLE "0:"
    INDEX 01 02:35:04
  TRACK 62 AUDIO
    TITLE "5:cjc037_1113"
    INDEX 01 02:35:61
  TRACK 63 AUDIO
    TITLE "0:"
    INDEX 01 02:40:58
  TRACK 64 AUDIO
    TITLE "6:cjc037_1114"
    INDEX 01 02:44:19
  TRACK 65 AUDIO
    TITLE "0:"
    INDEX 01 02:47:54
  TRACK 66 AUDIO
    TITLE "7:cjc037_1115"
    INDEX 01 02:51:13
  TRACK 67 AUDIO
    TITLE "0:"
    INDEX 01 02:54:07
  TRACK 68 AUDIO
    TITLE "4:cjc037_1116"
    INDEX 01 02:56:42
  TRACK 69 AUDIO
    TITLE "0:"
    INDEX 01 02:58:48
  TRACK 70 AUDIO
    TITLE "5:cjc037_1117"
    INDEX 01 02:59:20
  TRACK 71 AUDIO
    TITLE "0:"
    INDEX 01 03:04:08
  TRACK 72 AUDIO
    TITLE "6:cjc037_1118"
    INDEX 01 03:07:43
  TRACK 73 AUDIO
    TITLE "0:"
    INDEX 01 03:11:02
  TRACK 74 AUDIO
    TITLE "7:cjc037_1119"
    INDEX 01 03:14:38
  TRACK 75 AUDIO
    TITLE "0:"
    INDEX 01 03:17:05
  TRACK 76 AUDIO
    TITLE "4:cjc037_1120"
    INDEX 01 03:19:39
  TRACK 77 AUDIO
    TITLE "0:"
    INDEX 01 03:21:26
  TRACK 78 AUDIO
    TITLE "5:cjc037_1121"
    INDEX 01 03:22:02
  TRACK 79 AUDIO
    TITLE "0:"
    INDEX 01 03:26:06
  TRACK 80 AUDIO
    TITLE "6:cjc037_1122"
    INDEX 01 03:29:39
  TRACK 81 AUDIO
    TITLE "0:"
    INDEX 01 03:32:32
  TRACK 82 AUDIO
    TITLE "7:cjc037_1123"
    INDEX 01 03:35:63
  TRACK 83 AUDIO
    TITLE "0:"
    INDEX 01 03:38:24
  TRACK 84 AUDIO
    TITLE "4:cjc037_1124"
    INDEX 01 03:40:59
  TRACK 85 AUDIO
    TITLE "0:"
    INDEX 01 03:42:46
  TRACK 86 AUDIO
    TITLE "5:cjc037_1125"
    INDEX 01 03:43:22
  TRACK 87 AUDIO
    TITLE "0:"
    INDEX 01 03:48:40
  TRACK 88 AUDIO
    TITLE "6:cjc037_1126"
    INDEX 01 03:51:74
  TRACK 89 AUDIO
    TITLE "0:"
    INDEX 01 03:56:34
  TRACK 90 AUDIO
    TITLE "7:cjc037_1127"
    INDEX 01 03:59:70
  TRACK 91 AUDIO
    TITLE "0:"
    INDEX 01 04:03:22
  TRACK 92 AUDIO
    TITLE "4:cjc037_1128"
    INDEX 01 04:05:57
  TRACK 93 AUDIO
    TITLE "0:"
    INDEX 01 04:07:48
  TRACK 94 AUDIO
    TITLE "5:cjc037_1129"
    INDEX 01 04:08:24
  TRACK 95 AUDIO
    TITLE "0:"
    INDEX 01 04:12:47
  TRACK 96 AUDIO
    TITLE "6:cjc037_1130"
    INDEX 01 04:16:05
  TRACK 97 AUDIO
    TITLE "0:"
    INDEX 01 04:18:67
  TRACK 98 AUDIO
    TITLE "7:cjc037_1131"
    INDEX 01 04:22:28
  TRACK 99 AUDIO
    TITLE "0:"
    INDEX 01 04:24:44
  TRACK 100 AUDIO
    TITLE "4:cjc037_1132"
    INDEX 01 04:27:03
  TRACK 101 AUDIO
    TITLE "0:"
    INDEX 01 04:28:73
  TRACK 102 AUDIO
    TITLE "5:cjc037_1133"
    INDEX 01 04:29:53
  TRACK 103 AUDIO
    TITLE "0:"
    INDEX 01 04:33:41
  TRACK 104 AUDIO
    TITLE "6:cjc037_1134"
    INDEX 01 04:37:02
  TRACK 105 AUDIO
    TITLE "0:"
    INDEX 01 04:40:10
  TRACK 106 AUDIO
    TITLE "7:cjc037_1135"
    INDEX 01 04:43:43
  TRACK 107 AUDIO
    TITLE "0:"
    INDEX 01 04:46:10
  TRACK 108 AUDIO
    TITLE "4:cjc037_1136"
    INDEX 01 04:48:45
  TRACK 109 AUDIO
    TITLE "0:"
    INDEX 01 04:50:38
  TRACK 110 AUDIO
    TITLE "5:cjc037_1137"
    INDEX 01 04:51:15
  TRACK 111 AUDIO
    TITLE "0:"
    INDEX 01 04:55:49
  TRACK 112 AUDIO
    TITLE "6:cjc037_1138"
    INDEX 01 04:59:07
  TRACK 113 AUDIO
    TITLE "0:"
    INDEX 01 05:02:70
  TRACK 114 AUDIO
    TITLE "7:cjc037_1139"
    INDEX 01 05:06:29
  TRACK 115 AUDIO
    TITLE "0:"
    INDEX 01 05:09:23
  TRACK 116 AUDIO
    TITLE "4:cjc037_1140"
    INDEX 01 05:11:63
  TRACK 117 AUDIO
    TITLE "0:"
    INDEX 01 05:13:56
  TRACK 118 AUDIO
    TITLE "5:cjc037_1141"
    INDEX 01 05:14:36
  TRACK 119 AUDIO
    TITLE "0:"
    INDEX 01 05:20:17
  TRACK 120 AUDIO
    TITLE "6:cjc037_1142"
    INDEX 01 05:23:61
  TRACK 121 AUDIO
    TITLE "0:"
    INDEX 01 05:29:61
  TRACK 122 AUDIO
    TITLE "7:cjc037_1143"
    INDEX 01 05:33:24
  TRACK 123 AUDIO
    TITLE "0:"
    INDEX 01 05:38:05
